<svg width="32" height="27" viewBox="0 0 32 27" fill="none" xmlns="http://www.w3.org/2000/svg">
<path d="M16.1811 19.167L23.4667 3.3033C23.7753 2.63077 23.9296 2.10989 23.9296 1.74066C23.9296 1.17363 23.4868 0.804396 22.6013 0.632967V0H32V0.632967C31.4096 0.712088 31.0004 0.876923 30.7723 1.12747C30.5442 1.37802 30.1484 2.1033 29.5849 3.3033L20.0654 23.4989C19.6629 24.356 19.4616 24.9165 19.4616 25.1802C19.4616 25.8527 19.8843 26.2484 20.7296 26.367V27H11.2704V26.367C12.1157 26.2484 12.5384 25.8462 12.5384 25.1604C12.5384 24.9099 12.3371 24.356 11.9346 23.4989L2.41509 3.3033C1.85157 2.1033 1.45577 1.37802 1.22767 1.12747C0.999581 0.876923 0.590356 0.712088 0 0.632967V0H9.76101V0.632967C8.87547 0.804396 8.4327 1.17363 8.4327 1.74066C8.4327 2.10989 8.587 2.63077 8.8956 3.3033L16.1811 19.167Z" fill="Black"/>
</svg>
