<svg width="18" height="18" viewBox="0 0 18 18" fill="none" xmlns="http://www.w3.org/2000/svg">
<path d="M10.7571 18C11.3757 18 11.8138 17.4673 12.1318 16.6425L17.7594 1.94176C17.914 1.54654 18 1.19427 18 0.902147C18 0.343671 17.6563 0 17.0978 0C16.8057 0 16.4535 0.0859221 16.0583 0.240575L1.28019 5.90262C0.558473 6.17756 0 6.61575 0 7.24295C0 8.03344 0.601432 8.29976 1.42625 8.54892L6.06587 9.95802C6.61575 10.1299 6.92505 10.1126 7.29451 9.76895L16.7198 0.96229C16.8315 0.859186 16.9603 0.876368 17.0463 0.953695C17.1322 1.03962 17.1408 1.16849 17.0377 1.28019L8.26539 10.7398C7.9303 11.0921 7.90453 11.3843 8.06777 11.9599L9.43392 16.4964C9.69162 17.3642 9.95802 18 10.7571 18Z" fill="#8E8E8E"/>
</svg>
