<svg width="20" height="18" viewBox="0 0 20 18" fill="none" xmlns="http://www.w3.org/2000/svg">
<path d="M3.4187 18C4.45468 18 7.03597 16.869 8.50362 15.8159C8.65037 15.7122 8.77118 15.669 8.89208 15.669C9.00435 15.6777 9.11654 15.6863 9.22874 15.6863C15.4533 15.6863 19.5798 12.1468 19.5798 7.84745C19.5798 3.50503 15.2288 0 9.78995 0C4.35108 0 0 3.50503 0 7.84745C0 10.61 1.70072 13.036 4.47194 14.5208C4.60144 14.5899 4.64461 14.7194 4.57554 14.8489C4.09209 15.6432 3.22877 16.5928 2.90072 17.0245C2.56403 17.4561 2.75396 18 3.4187 18Z" fill="#8E8E8E"/>
</svg>
