<svg width="11" height="20" viewBox="0 0 11 20" fill="none" xmlns="http://www.w3.org/2000/svg">
<path d="M7.76271 10L0.412708 2.65C0.162708 2.4 0.0418746 2.10417 0.0502079 1.7625C0.0585412 1.42083 0.187708 1.125 0.437708 0.875C0.687708 0.625 0.983541 0.5 1.32521 0.5C1.66687 0.5 1.96271 0.625 2.21271 0.875L9.88771 8.575C10.0877 8.775 10.2377 9 10.3377 9.25C10.4377 9.5 10.4877 9.75 10.4877 10C10.4877 10.25 10.4377 10.5 10.3377 10.75C10.2377 11 10.0877 11.225 9.88771 11.425L2.18771 19.125C1.93771 19.375 1.64604 19.4958 1.31271 19.4875C0.979375 19.4792 0.687708 19.35 0.437708 19.1C0.187708 18.85 0.0627079 18.5542 0.0627079 18.2125C0.0627079 17.8708 0.187708 17.575 0.437708 17.325L7.76271 10Z" fill="#1E1E1E"/>
</svg>
