<svg width="18" height="18" viewBox="0 0 18 18" fill="none" xmlns="http://www.w3.org/2000/svg">
<path d="M0 12.3783C0 14.9824 1.62756 17.1642 3.80938 17.1642H5.35776C3.77418 16.0117 3.12317 14.2698 3.12317 12.2903C3.13196 10.0909 3.98533 8.51615 4.74193 7.56595H3.48386C1.52199 7.56595 0 9.67739 0 12.3783ZM4.33723 12.3079C4.33723 15.5191 6.84457 18 10.9355 18H12.132C13.2669 18 14.1114 17.9208 14.5865 17.7888C15.2727 17.6217 15.9326 17.1994 15.9326 16.3724C15.9326 16.0293 15.8446 15.7829 15.7389 15.5982C15.6686 15.4838 15.6862 15.3959 15.7918 15.3519C16.3372 15.1231 16.7859 14.6128 16.7859 13.9179C16.7859 13.522 16.6715 13.1701 16.478 12.9326C16.3812 12.8006 16.39 12.6774 16.5572 12.5894C16.9442 12.3607 17.2258 11.868 17.2258 11.2962C17.2258 10.8827 17.0938 10.4516 16.865 10.2404C16.7243 10.1173 16.7507 10.0293 16.8915 9.89735C17.1642 9.6686 17.3402 9.27274 17.3402 8.77125C17.3402 7.92668 16.6804 7.23166 15.8094 7.23166H12.7126C11.9296 7.23166 11.4105 6.82697 11.4105 6.17594C11.4105 5.00586 12.8797 2.84164 12.8797 1.29326C12.8797 0.475072 12.3519 0 11.6657 0C11.0322 0 10.7244 0.431085 10.39 1.0909C9.0792 3.63342 7.33723 5.69207 6.00879 7.4516C4.88269 8.94722 4.33723 10.2404 4.33723 12.3079Z" fill="#8E8E8E"/>
</svg>
