<svg width="4" height="19" viewBox="0 0 4 19" fill="none" xmlns="http://www.w3.org/2000/svg">
<path d="M3.90625 17.0469C3.90625 15.9434 3.03711 15.0645 1.95312 15.0645C0.86914 15.0645 0 15.9434 0 17.0469C0 18.1211 0.86914 19 1.95312 19C3.03711 19 3.90625 18.1211 3.90625 17.0469ZM3.90625 9.79102C3.90625 8.707 3.03711 7.8379 1.95312 7.8379C0.86914 7.8379 0 8.707 0 9.79102C0 10.8652 0.86914 11.7344 1.95312 11.7344C3.03711 11.7344 3.90625 10.8652 3.90625 9.79102ZM3.90625 2.5352C3.90625 1.4512 3.03711 0.582001 1.95312 0.582001C0.86914 0.582001 0 1.4512 0 2.5352C0 3.6387 0.86914 4.5078 1.95312 4.5078C3.03711 4.5078 3.90625 3.6387 3.90625 2.5352Z" fill="#8E8E8E"/>
</svg>
