<svg width="18" height="16" viewBox="0 0 18 16" fill="none" xmlns="http://www.w3.org/2000/svg">
<path d="M0.716629 7.79859C1.12131 7.79859 1.43326 7.48664 1.43326 7.08197V6.28104C1.43326 4.83092 2.41967 3.88666 3.94568 3.88666H10.5218V5.86792C10.5218 6.20516 10.7241 6.39907 11.0698 6.39907C11.2216 6.39907 11.3817 6.34006 11.4998 6.23888L14.6867 3.6C14.9565 3.3808 14.9733 3.03513 14.6867 2.79907L11.4998 0.151756C11.3817 0.0505859 11.2216 0 11.0698 0C10.7241 0 10.5218 0.185481 10.5218 0.531148V2.48713H4.08057C1.61031 2.48713 0 3.89509 0 6.17987V7.08197C0 7.48664 0.303513 7.79859 0.716629 7.79859ZM17.2834 7.20002C16.8703 7.20002 16.5667 7.50355 16.5667 7.91665V8.7176C16.5667 10.1677 15.5803 11.1035 14.0459 11.1035H7.46979V9.14754C7.46979 8.80185 7.2759 8.61638 6.93022 8.61638C6.77003 8.61638 6.61828 8.66703 6.49181 8.76818L3.30492 11.407C3.03513 11.6431 3.0267 11.9803 3.30492 12.208L6.49181 14.8553C6.61828 14.9564 6.77003 15.0155 6.93022 15.0155C7.2759 15.0155 7.46979 14.8215 7.46979 14.4843V12.5115H13.911C16.3897 12.5115 18 11.1035 18 8.81876V7.91665C18 7.50355 17.688 7.20002 17.2834 7.20002Z" fill="#8E8E8E"/>
</svg>
