<svg width="18" height="18" viewBox="0 0 18 18" fill="none" xmlns="http://www.w3.org/2000/svg">
<path fill-rule="evenodd" clip-rule="evenodd" d="M11.1482 12.5568C9.98417 13.4286 8.53858 13.9449 6.97247 13.9449C3.12168 13.9449 0 10.8233 0 6.97247C0 3.12168 3.12168 0 6.97247 0C10.8233 0 13.9449 3.12168 13.9449 6.97247C13.9449 8.53858 13.4286 9.98418 12.5568 11.1482L17.7083 16.2996C18.0972 16.6886 18.0972 17.3193 17.7083 17.7083C17.3192 18.0972 16.6886 18.0972 16.2996 17.7083L11.1482 12.5568ZM11.9529 6.97247C11.9529 9.72301 9.72306 11.9528 6.97252 11.9528C4.22196 11.9528 1.99219 9.72301 1.99219 6.97247C1.99219 4.22191 4.22196 1.99213 6.97252 1.99213C9.72306 1.99213 11.9529 4.22191 11.9529 6.97247Z" fill="#8E8E8E"/>
</svg>
