<svg width="20" height="20" viewBox="0 0 20 20" fill="none" xmlns="http://www.w3.org/2000/svg">
<path d="M13.5 9C13.9167 9 14.2708 8.85417 14.5625 8.5625C14.8542 8.27083 15 7.91667 15 7.5C15 7.08333 14.8542 6.72917 14.5625 6.4375C14.2708 6.14583 13.9167 6 13.5 6C13.0833 6 12.7292 6.14583 12.4375 6.4375C12.1458 6.72917 12 7.08333 12 7.5C12 7.91667 12.1458 8.27083 12.4375 8.5625C12.7292 8.85417 13.0833 9 13.5 9ZM6.5 9C6.91667 9 7.27083 8.85417 7.5625 8.5625C7.85417 8.27083 8 7.91667 8 7.5C8 7.08333 7.85417 6.72917 7.5625 6.4375C7.27083 6.14583 6.91667 6 6.5 6C6.08333 6 5.72917 6.14583 5.4375 6.4375C5.14583 6.72917 5 7.08333 5 7.5C5 7.91667 5.14583 8.27083 5.4375 8.5625C5.72917 8.85417 6.08333 9 6.5 9ZM10 20C8.61667 20 7.31667 19.7375 6.1 19.2125C4.88333 18.6875 3.825 17.975 2.925 17.075C2.025 16.175 1.3125 15.1167 0.7875 13.9C0.2625 12.6833 0 11.3833 0 10C0 8.61667 0.2625 7.31667 0.7875 6.1C1.3125 4.88333 2.025 3.825 2.925 2.925C3.825 2.025 4.88333 1.3125 6.1 0.7875C7.31667 0.2625 8.61667 0 10 0C11.3833 0 12.6833 0.2625 13.9 0.7875C15.1167 1.3125 16.175 2.025 17.075 2.925C17.975 3.825 18.6875 4.88333 19.2125 6.1C19.7375 7.31667 20 8.61667 20 10C20 11.3833 19.7375 12.6833 19.2125 13.9C18.6875 15.1167 17.975 16.175 17.075 17.075C16.175 17.975 15.1167 18.6875 13.9 19.2125C12.6833 19.7375 11.3833 20 10 20ZM10 18C12.2333 18 14.125 17.225 15.675 15.675C17.225 14.125 18 12.2333 18 10C18 7.76667 17.225 5.875 15.675 4.325C14.125 2.775 12.2333 2 10 2C7.76667 2 5.875 2.775 4.325 4.325C2.775 5.875 2 7.76667 2 10C2 12.2333 2.775 14.125 4.325 15.675C5.875 17.225 7.76667 18 10 18ZM10 15.5C10.9667 15.5 11.8583 15.2667 12.675 14.8C13.4917 14.3333 14.15 13.7 14.65 12.9C14.75 12.7 14.7417 12.5 14.625 12.3C14.5083 12.1 14.3333 12 14.1 12H5.9C5.66667 12 5.49167 12.1 5.375 12.3C5.25833 12.5 5.25 12.7 5.35 12.9C5.85 13.7 6.5125 14.3333 7.3375 14.8C8.1625 15.2667 9.05 15.5 10 15.5Z" fill="#8E8E8E"/>
</svg>
